<svg xmlns="http://www.w3.org/2000/svg" xmlns:xlink="http://www.w3.org/1999/xlink" width="20" height="14" viewBox="0 0 20 14">
    <defs>
        <path id="a" d="M.003.031v13.091H19.98V.032z"/>
    </defs>
    <g fill="none" fill-rule="evenodd">
        <mask id="b" fill="#fff">
            <use xlink:href="#a"/>
        </mask>
        <path fill="#FF4B55" d="M19.636 13.122H.344A.345.345 0 0 1 0 12.777V.376C0 .186.154.03.344.03h19.292c.19 0 .345.155.345.345v12.401c0 .19-.155.345-.345.345z" mask="url(#b)"/>
        <path fill="#F8F8F8" d="M13.78 5.199h-2.412V2.787a.345.345 0 0 0-.344-.344H8.957a.345.345 0 0 0-.345.344V5.2H6.201a.344.344 0 0 0-.345.344V7.61c0 .19.154.345.345.345h2.411v2.411c0 .19.154.345.345.345h2.067c.19 0 .344-.155.344-.345V7.955h2.412c.19 0 .344-.155.344-.345V5.543a.344.344 0 0 0-.344-.344z" mask="url(#b)"/>
    </g>
</svg>
