<svg xmlns="http://www.w3.org/2000/svg" width="12" height="16" viewBox="0 0 12 16">
    <g fill="#6F6DCC" fill-rule="evenodd">
        <path d="M.923 14h10.154c.472 0 .923.45.923 1s-.45 1-.923 1H.923C.451 16 0 15.55 0 15s.45-1 .923-1zM.324 7.048l4.919 4.648c.053.05.108.077.162.127.026.025.053.025.081.05.027.026.082.026.109.051.026.026.081.026.108.026.027 0 .053.025.109.025.053 0 .135.025.188.025h.027c.053 0 .135 0 .189-.025.026 0 .053-.025.081-.025.027 0 .082-.026.109-.026.026-.025.081-.025.108-.05.027-.026.053-.026.081-.05.054-.026.109-.078.163-.128h.026l4.892-4.648a.979.979 0 0 0 0-1.455 1.098 1.098 0 0 0-.758-.306c-.27 0-.54.102-.757.306l-3.08 2.912V1.022C7.081.46 6.594 0 6.001 0c-.595 0-1.082.46-1.082 1.022v7.483L1.837 5.593a1.097 1.097 0 0 0-.757-.306c-.27 0-.54.102-.757.306a.98.98 0 0 0 .001 1.455z"/>
    </g>
</svg>
