<svg xmlns="http://www.w3.org/2000/svg" xmlns:xlink="http://www.w3.org/1999/xlink" width="20" height="14" viewBox="0 0 20 14">
    <defs>
        <path id="a" d="M.003.031v13.091H19.98V.032z"/>
    </defs>
    <g fill="none" fill-rule="evenodd">
        <mask id="b" fill="#fff">
            <use xlink:href="#a"/>
        </mask>
        <path fill="#41479B" d="M19.636 13.122H.344A.345.345 0 0 1 0 12.777V.376C0 .186.154.03.344.03h19.292c.19 0 .345.155.345.345v12.401c0 .19-.155.345-.345.345z" mask="url(#b)"/>
        <path fill="#FFE15A" d="M10.13 1.53l.138.414.437.004c.057 0 .08.072.035.106l-.352.26.132.415a.059.059 0 0 1-.09.066l-.356-.254-.355.254a.059.059 0 0 1-.09-.066l.132-.416-.351-.259a.059.059 0 0 1 .034-.106l.437-.004.138-.414a.059.059 0 0 1 .111 0zM10.13 10.422l.138.415.437.003c.057 0 .08.073.035.106l-.352.26.132.416a.059.059 0 0 1-.09.065l-.356-.254-.355.254a.059.059 0 0 1-.09-.065l.132-.417-.351-.259a.059.059 0 0 1 .034-.106l.437-.003.138-.415a.059.059 0 0 1 .111 0zM14.576 5.976l.139.414.436.004c.057 0 .08.072.035.106l-.352.26.132.416a.059.059 0 0 1-.09.065l-.355-.254-.356.254a.059.059 0 0 1-.09-.065l.132-.417-.351-.259a.059.059 0 0 1 .034-.106l.437-.004.138-.414a.059.059 0 0 1 .111 0zM5.684 5.976l.138.414.437.004c.057 0 .08.072.034.106l-.35.26.131.416a.059.059 0 0 1-.09.065l-.356-.254-.355.254a.059.059 0 0 1-.09-.065l.132-.417-.352-.259a.059.059 0 0 1 .035-.106l.436-.004.139-.414a.059.059 0 0 1 .111 0zM6.352 3.655l.138.414.436.003c.057 0 .08.073.035.106l-.351.26.131.416a.059.059 0 0 1-.09.065l-.355-.254-.355.254a.059.059 0 0 1-.09-.065l.131-.416-.351-.26a.059.059 0 0 1 .034-.106l.437-.003.138-.414a.059.059 0 0 1 .112 0zM14.053 8.1l.138.415.436.003c.057 0 .08.073.035.106l-.351.26.131.416a.059.059 0 0 1-.09.065l-.355-.254-.355.254a.059.059 0 0 1-.09-.065l.13-.416-.35-.26a.059.059 0 0 1 .034-.106l.437-.003.138-.414a.059.059 0 0 1 .112 0zM12.425 2.027l.138.414.437.004c.056 0 .08.072.034.106l-.35.26.13.415a.059.059 0 0 1-.09.066l-.355-.254-.355.254a.059.059 0 0 1-.09-.066l.132-.416-.352-.26a.059.059 0 0 1 .035-.105l.437-.004.138-.414a.059.059 0 0 1 .111 0zM7.979 9.728l.138.414.437.004c.056 0 .08.072.034.106l-.351.26.132.415a.059.059 0 0 1-.09.066l-.356-.254-.355.254a.059.059 0 0 1-.09-.066l.131-.416-.35-.26a.059.059 0 0 1 .034-.105l.436-.004.138-.414a.059.059 0 0 1 .112 0zM13.94 3.655l-.137.414-.437.003a.059.059 0 0 0-.034.106l.35.26-.13.416a.059.059 0 0 0 .09.065l.355-.254.355.254a.059.059 0 0 0 .09-.065l-.131-.416.35-.26a.059.059 0 0 0-.034-.106l-.436-.003-.138-.414a.059.059 0 0 0-.112 0zM6.24 8.1l-.138.415-.437.003a.059.059 0 0 0-.034.106l.351.26-.132.416a.059.059 0 0 0 .09.065l.356-.254.355.254a.059.059 0 0 0 .09-.065l-.131-.416.35-.26a.059.059 0 0 0-.034-.106l-.436-.003-.138-.414a.059.059 0 0 0-.112 0zM7.867 2.027l-.138.414-.436.004a.059.059 0 0 0-.035.106l.351.26-.131.415a.059.059 0 0 0 .09.066l.355-.254.355.254a.059.059 0 0 0 .09-.066l-.131-.416.351-.26a.059.059 0 0 0-.034-.105l-.437-.004-.138-.414a.059.059 0 0 0-.112 0zM12.313 9.728l-.138.414-.436.004a.059.059 0 0 0-.035.106l.351.26-.131.415a.059.059 0 0 0 .09.066l.355-.254.355.254a.059.059 0 0 0 .09-.066l-.13-.416.35-.26a.059.059 0 0 0-.034-.105l-.437-.004-.138-.414a.059.059 0 0 0-.112 0z" mask="url(#b)"/>
    </g>
</svg>
