<svg xmlns="http://www.w3.org/2000/svg" width="22" height="24" viewBox="0 0 22 24">
    <path fill="#9795E4" fill-rule="evenodd" d="M13.942 1.807c.077.05.077.152 0 .203l-2.624 1.763c-.077.05-.205 0-.205-.101v-.958c-5.225 0-9.481 4.206-9.481 9.37a9.308 9.308 0 0 0 3.925 7.58L4.588 21A10.982 10.982 0 0 1 0 12.083C-.025 6.015 4.97 1.078 11.113 1.078V.121c0-.102.128-.151.205-.102l2.624 1.788zM22 11.917c0-3.502-1.704-6.85-4.58-8.917l-.967 1.336c2.442 1.763 3.919 4.583 3.919 7.58 0 5.163-4.25 9.369-9.465 9.369v-.958c0-.1-.127-.15-.204-.1L8.058 21.99c-.077.05-.077.15 0 .202l2.62 1.788c.078.05.205 0 .205-.102v-.957c6.13 0 11.117-4.936 11.117-11.006zM11.68 6h-.875c-.137 0-.23.123-.23.245V7.35c-.667.098-1.195.368-1.61.784-.46.467-.667 1.056-.667 1.767 0 .785.207 1.374.645 1.792.437.417 1.104.81 2.047 1.203.39.171.644.368.805.54.16.17.23.442.23.784 0 .294-.07.515-.23.688-.138.171-.368.27-.645.27-.345 0-.62-.123-.827-.344-.185-.197-.276-.467-.323-.86-.022-.146-.137-.269-.275-.269l-1.45.026c-.16 0-.275.147-.275.294.045.81.275 1.424.735 1.865.483.466 1.105.76 1.84.834v1.03c0 .148.115.246.23.246h.875c.138 0 .23-.123.23-.245v-1.056c.598-.123 1.057-.369 1.425-.737.437-.442.645-1.03.645-1.766 0-.76-.208-1.374-.645-1.767-.437-.416-1.104-.834-2.024-1.251-.39-.197-.667-.368-.805-.54-.138-.17-.207-.416-.207-.711 0-.294.069-.515.207-.712.138-.197.345-.27.62-.27.276 0 .506.123.668.344.137.171.207.442.23.76.022.147.137.27.275.246l1.426-.024c.16 0 .275-.147.275-.295-.045-.662-.23-1.227-.598-1.669-.367-.466-.874-.76-1.495-.907V6.247c.003-.124-.09-.247-.227-.247z"/>
</svg>
