<svg xmlns="http://www.w3.org/2000/svg" width="19" height="16" viewBox="0 0 19 16">
    <g fill="#9795E4" fill-rule="evenodd">
        <path d="M9.327 14.323H1.673V1.647h7.682v2.928c0 .454.37.825.823.825.453 0 .822-.37.822-.825V0H0v16h11v-4.605a.825.825 0 0 0-.822-.824.825.825 0 0 0-.823.824v2.928h-.028z"/>
        <path d="M13.653 4.244c-.354.326-.354.817 0 1.116l2.01 1.85H6.856C6.385 7.21 6 7.566 6 8c0 .435.385.79.857.79h8.864l-2.01 1.85c-.354.326-.354.816 0 1.116.354.325.886.325 1.21 0L19 8l-4.078-3.756a.946.946 0 0 0-1.27 0z"/>
    </g>
</svg>
