<svg xmlns="http://www.w3.org/2000/svg" xmlns:xlink="http://www.w3.org/1999/xlink" width="20" height="14" viewBox="0 0 20 14">
    <defs>
        <path id="a" d="M.003.031v13.091H19.98V.032z"/>
        <path id="c" d="M.003.065v13.05H19.98V.065z"/>
    </defs>
    <g fill="none" fill-rule="evenodd">
        <mask id="b" fill="#fff">
            <use xlink:href="#a"/>
        </mask>
        <path fill="#41479B" d="M19.636 13.122H.344A.345.345 0 0 1 0 12.777V.376C0 .186.154.03.344.03h19.292c.19 0 .345.155.345.345v12.401c0 .19-.155.345-.345.345z" mask="url(#b)"/>
        <path fill="#F8F8F8" d="M19.98.376a.345.345 0 0 0-.344-.345h-1.541l-6.382 4.182V.03H8.268v4.182L1.886.03H.344A.345.345 0 0 0 0 .376v.89l5.475 3.588H0v3.445h5.475L0 11.886v.891c0 .19.154.345.344.345h1.542l6.382-4.181v4.181h3.445V8.941l6.382 4.181h1.541c.19 0 .345-.154.345-.345v-.89l-5.476-3.588h5.476V4.854h-5.476l5.476-3.587V.376z" mask="url(#b)"/>
        <path fill="#FF4B55" d="M19.98 5.543h-8.956V.031H8.957v5.512H0V7.61h8.957v5.512h2.067V7.61h8.957z" mask="url(#b)"/>
        <path fill="#FF4B55" d="M6.983 8.299L.01 12.826a.34.34 0 0 0 .334.296H.82l7.43-4.823H6.983z" mask="url(#b)"/>
        <mask id="d" fill="#fff">
            <use xlink:href="#c"/>
        </mask>
        <path fill="#FF4B55" d="M13.518 8.299h-1.266l7.42 4.816a.34.34 0 0 0 .309-.338v-.283L13.518 8.3zM0 .756l6.313 4.098H7.58L.2.064A.343.343 0 0 0 0 .377v.38zM12.978 4.854l6.99-4.538a.34.34 0 0 0-.332-.285h-.493l-7.43 4.823h1.265z" mask="url(#d)"/>
    </g>
</svg>
