<svg xmlns="http://www.w3.org/2000/svg" xmlns:xlink="http://www.w3.org/1999/xlink" width="20" height="14" viewBox="0 0 20 14">
    <defs>
        <path id="a" d="M.003.031v13.091H19.98V.032z"/>
    </defs>
    <g fill="none" fill-rule="evenodd">
        <mask id="b" fill="#fff">
            <use xlink:href="#a"/>
        </mask>
        <path fill="#F8F8F8" d="M19.636 13.122H.344A.345.345 0 0 1 0 12.777V.376C0 .186.154.03.344.03h19.292c.19 0 .345.155.345.345v12.401c0 .19-.155.345-.345.345z" mask="url(#b)"/>
        <path fill="#FF4B55" d="M19.98 1.038H0V.376C0 .186.154.03.344.03h19.292c.19 0 .345.155.345.345v.662zM.003 5.066H19.98V4.06H.003zM.003 3.052H19.98V2.045H.003zM19.98 7.08H.345A.345.345 0 0 1 0 6.736v-.663h19.98V7.08zM.003 11.108H19.98v-1.007H.003zM19.636 13.122H.344A.345.345 0 0 1 0 12.777v-.662h19.98v.662c0 .19-.154.345-.344.345zM.003 9.094H19.98V8.087H.003z" mask="url(#b)"/>
        <path fill="#41479B" d="M8.957.031H.344A.345.345 0 0 0 0 .376v6.36c0 .19.154.344.344.344h8.613c.19 0 .344-.154.344-.344V.376A.345.345 0 0 0 8.957.03z" mask="url(#b)"/>
        <path fill="#F8F8F8" d="M.967.822l.077.229.24.001c.032 0 .045.04.02.06l-.194.142.073.23c.01.03-.025.054-.05.036l-.196-.14-.197.14a.033.033 0 0 1-.05-.036l.073-.23-.194-.143c-.025-.018-.012-.058.02-.058l.24-.002.077-.229c.01-.03.052-.03.061 0zM.967 2.018l.077.229.24.002c.032 0 .045.04.02.058l-.194.144.073.23c.01.03-.025.054-.05.036l-.196-.14-.197.14a.033.033 0 0 1-.05-.037l.073-.23-.194-.143a.032.032 0 0 1 .02-.058l.24-.002.077-.229c.01-.03.052-.03.061 0zM.967 3.215l.077.228.24.002c.032 0 .045.04.02.059l-.194.143.073.23c.01.03-.025.054-.05.036l-.196-.14-.197.14a.033.033 0 0 1-.05-.036l.073-.23-.194-.143c-.025-.019-.012-.059.02-.06h.24l.077-.23c.01-.03.052-.03.061 0zM.967 4.41l.077.23.24.001c.032 0 .045.04.02.059l-.194.143.073.23c.01.03-.025.054-.05.036l-.196-.14-.197.14a.033.033 0 0 1-.05-.036l.073-.23L.57 4.7a.032.032 0 0 1 .02-.059l.24-.001.077-.23c.01-.029.052-.029.061 0zM.967 5.607l.077.229.24.001c.032 0 .045.04.02.06l-.194.142.073.23c.01.03-.025.055-.05.036l-.196-.14-.197.14a.033.033 0 0 1-.05-.036l.073-.23-.194-.143a.032.032 0 0 1 .02-.058l.24-.002.077-.229c.01-.03.052-.03.061 0zM1.896 1.409l.076.228.241.002c.031 0 .044.04.02.059l-.195.143.073.23a.033.033 0 0 1-.05.036l-.196-.14-.196.14a.033.033 0 0 1-.05-.036l.073-.23-.194-.143a.033.033 0 0 1 .019-.06h.241l.076-.23c.01-.03.052-.03.062 0zM1.896 2.605l.076.228.241.002c.031 0 .044.04.02.059l-.195.143.073.23a.033.033 0 0 1-.05.036l-.196-.14-.196.14a.033.033 0 0 1-.05-.036l.073-.23-.194-.143a.033.033 0 0 1 .019-.059l.241-.002.076-.228c.01-.03.052-.03.062 0zM1.896 3.801l.076.229.241.001c.031 0 .044.04.02.06l-.195.142.073.23a.033.033 0 0 1-.05.036l-.196-.14-.196.14a.033.033 0 0 1-.05-.036l.073-.23-.194-.143a.033.033 0 0 1 .019-.059l.241-.001.076-.229c.01-.03.052-.03.062 0zM1.896 4.997l.076.229.241.002c.031 0 .044.04.02.058l-.195.144.073.23a.033.033 0 0 1-.05.036l-.196-.14-.196.14a.033.033 0 0 1-.05-.036l.073-.23-.194-.144a.033.033 0 0 1 .019-.058l.241-.002.076-.229c.01-.03.052-.03.062 0zM2.824.822l.077.229.24.001c.032 0 .045.04.02.06l-.194.142.073.23a.033.033 0 0 1-.05.036l-.196-.14-.196.14a.033.033 0 0 1-.05-.036l.072-.23-.194-.143c-.025-.018-.012-.058.02-.059l.24-.001.077-.229c.01-.03.052-.03.061 0zM2.824 2.018l.077.229.24.002c.032 0 .045.04.02.058l-.194.144.073.23a.033.033 0 0 1-.05.036l-.196-.14-.196.14a.033.033 0 0 1-.05-.037l.072-.23-.194-.143a.033.033 0 0 1 .02-.058l.24-.002.077-.229c.01-.03.052-.03.061 0zM2.824 3.215l.077.228.24.002c.032 0 .045.04.02.059l-.194.143.073.23a.033.033 0 0 1-.05.036l-.196-.14-.196.14a.033.033 0 0 1-.05-.036l.072-.23-.194-.143a.033.033 0 0 1 .02-.06h.24l.077-.23c.01-.03.052-.03.061 0zM2.824 4.41l.077.23.24.001c.032 0 .045.04.02.059l-.194.143.073.23a.033.033 0 0 1-.05.036l-.196-.14-.196.14a.032.032 0 0 1-.05-.036l.072-.23-.194-.143c-.025-.019-.012-.058.02-.059l.24-.001.077-.23c.01-.029.052-.029.061 0zM2.824 5.607l.077.229.24.001c.032 0 .045.04.02.06l-.194.142.073.23a.033.033 0 0 1-.05.036l-.196-.14-.196.14a.033.033 0 0 1-.05-.036l.072-.23-.194-.143a.033.033 0 0 1 .02-.059l.24-.001.077-.229c.01-.03.052-.03.061 0zM3.753 1.409l.076.228.241.002c.031 0 .044.04.02.059l-.195.143.073.23a.033.033 0 0 1-.05.036l-.196-.14-.196.14a.033.033 0 0 1-.05-.036l.073-.23-.194-.143a.033.033 0 0 1 .019-.06h.241l.076-.23c.01-.03.052-.03.062 0zM3.753 2.605l.076.228.241.002c.031 0 .044.04.02.059l-.195.143.073.23a.033.033 0 0 1-.05.036l-.196-.14-.196.14a.033.033 0 0 1-.05-.036l.073-.23-.194-.143c-.025-.019-.012-.058.019-.059l.241-.002.076-.228c.01-.03.052-.03.062 0zM3.753 3.801l.076.229.241.001c.031 0 .044.04.02.06l-.195.142.073.23a.033.033 0 0 1-.05.036l-.196-.14-.196.14a.032.032 0 0 1-.05-.036l.073-.23-.194-.143c-.025-.018-.012-.058.019-.059l.241-.001.076-.229c.01-.03.052-.03.062 0zM3.753 4.997l.076.229.241.002c.031 0 .044.04.02.058l-.195.144.073.23a.033.033 0 0 1-.05.036l-.196-.14-.196.14a.033.033 0 0 1-.05-.036l.073-.23-.194-.144a.033.033 0 0 1 .019-.058l.241-.002.076-.229c.01-.03.052-.03.062 0zM4.681.822l.077.229.24.001c.032 0 .045.04.02.06l-.194.142.073.23a.032.032 0 0 1-.05.036l-.196-.14-.197.14a.032.032 0 0 1-.05-.036l.073-.23-.193-.143c-.026-.018-.013-.058.019-.059l.24-.001.077-.229c.01-.03.052-.03.061 0zM4.681 2.018l.077.229.24.002c.032 0 .045.04.02.058l-.194.144.073.23a.032.032 0 0 1-.05.036l-.196-.14-.197.14a.032.032 0 0 1-.05-.037l.073-.23-.193-.143a.033.033 0 0 1 .019-.058l.24-.002.077-.229c.01-.03.052-.03.061 0zM4.681 3.215l.077.228.24.002c.032 0 .045.04.02.059l-.194.143.073.23a.032.032 0 0 1-.05.036l-.196-.14-.197.14a.032.032 0 0 1-.05-.036l.073-.23-.193-.143a.033.033 0 0 1 .019-.06h.24l.077-.23c.01-.03.052-.03.061 0zM4.681 4.41l.077.23.24.001c.032 0 .045.04.02.059l-.194.143.073.23a.032.032 0 0 1-.05.036l-.196-.14-.197.14a.032.032 0 0 1-.05-.036l.073-.23-.193-.143c-.026-.019-.013-.058.019-.059l.24-.001.077-.23c.01-.029.052-.029.061 0zM4.681 5.607l.077.229.24.001c.032 0 .045.04.02.06l-.194.142.073.23a.032.032 0 0 1-.05.036l-.196-.14-.197.14a.032.032 0 0 1-.05-.036l.073-.23-.193-.143a.033.033 0 0 1 .019-.059l.24-.001.077-.229c.01-.03.052-.03.061 0zM5.61 1.409l.076.228.241.002c.031 0 .044.04.02.059l-.195.143.073.23a.032.032 0 0 1-.05.036l-.196-.14-.196.14a.032.032 0 0 1-.05-.036l.073-.23-.194-.143a.033.033 0 0 1 .02-.06h.24l.076-.23c.01-.03.052-.03.062 0zM5.61 2.605l.076.228.241.002c.031 0 .044.04.02.059l-.195.143.073.23a.032.032 0 0 1-.05.036l-.196-.14-.196.14a.032.032 0 0 1-.05-.036l.073-.23-.194-.143c-.025-.019-.012-.058.02-.059l.24-.002.076-.228c.01-.03.052-.03.062 0zM5.61 3.801l.076.229.241.001c.031 0 .044.04.02.06l-.195.142.073.23a.032.032 0 0 1-.05.036l-.196-.14-.196.14a.032.032 0 0 1-.05-.036l.073-.23-.194-.143c-.025-.018-.012-.058.02-.059l.24-.001.076-.229c.01-.03.052-.03.062 0zM5.61 4.997l.076.229.241.002c.031 0 .044.04.02.058l-.195.144.073.23a.032.032 0 0 1-.05.036l-.196-.14-.196.14a.032.032 0 0 1-.05-.036l.073-.23-.194-.144a.033.033 0 0 1 .02-.058l.24-.002.076-.229c.01-.03.052-.03.062 0zM6.538.822l.077.229.24.001c.032 0 .045.04.02.06l-.194.142.073.23c.01.03-.025.054-.05.036l-.196-.14-.196.14a.032.032 0 0 1-.05-.036l.072-.23-.193-.143c-.026-.018-.013-.058.019-.059l.24-.001.077-.229c.01-.03.052-.03.061 0zM6.538 2.018l.077.229.24.002c.032 0 .045.04.02.058l-.194.144.073.23a.032.032 0 0 1-.05.036l-.196-.14-.196.14a.032.032 0 0 1-.05-.037l.072-.23-.193-.143a.033.033 0 0 1 .019-.058l.24-.002.077-.229c.01-.03.052-.03.061 0zM6.538 3.215l.077.228.24.002c.032 0 .045.04.02.059l-.194.143.073.23c.01.03-.025.054-.05.036l-.196-.14-.196.14a.032.032 0 0 1-.05-.036l.072-.23-.193-.143a.033.033 0 0 1 .019-.06h.24l.077-.23c.01-.03.052-.03.061 0zM6.538 4.41l.077.23.24.001c.032 0 .045.04.02.059l-.194.143.073.23a.032.032 0 0 1-.05.036l-.196-.14-.196.14a.032.032 0 0 1-.05-.036l.072-.23-.193-.143c-.026-.019-.013-.058.019-.059l.24-.001.077-.23c.01-.029.052-.029.061 0zM6.538 5.607l.077.229.24.001c.032 0 .045.04.02.06l-.194.142.073.23c.01.03-.025.055-.05.036l-.196-.14-.196.14a.032.032 0 0 1-.05-.036l.072-.23-.193-.143a.033.033 0 0 1 .019-.059l.24-.001.077-.229c.01-.03.052-.03.061 0zM7.467 1.409l.076.228.241.002c.032 0 .044.04.02.059l-.195.143.073.23c.01.03-.024.054-.05.036l-.196-.14-.196.14a.033.033 0 0 1-.05-.036l.073-.23-.194-.143a.033.033 0 0 1 .019-.06h.241l.076-.23c.01-.03.052-.03.062 0zM7.467 2.605l.076.228.241.002c.032 0 .044.04.02.059l-.195.143.073.23c.01.03-.024.054-.05.036l-.196-.14-.196.14a.033.033 0 0 1-.05-.036l.073-.23-.194-.143c-.025-.019-.012-.058.019-.059l.241-.002.076-.228c.01-.03.052-.03.062 0zM7.467 3.801l.076.229.241.001c.032 0 .044.04.02.06l-.195.142.073.23c.01.03-.024.055-.05.036l-.196-.14-.196.14a.033.033 0 0 1-.05-.036l.073-.23-.194-.143c-.025-.018-.012-.058.019-.059l.241-.001.076-.229c.01-.03.052-.03.062 0zM7.467 4.997l.076.229.241.002c.032 0 .044.04.02.058l-.195.144.073.23c.01.03-.024.054-.05.036l-.196-.14-.196.14a.033.033 0 0 1-.05-.036l.073-.23-.194-.144a.033.033 0 0 1 .019-.058l.241-.002.076-.229c.01-.03.052-.03.062 0zM8.396.822l.076.229.24.001c.032 0 .045.04.02.06l-.194.142.073.23c.01.03-.025.054-.05.036l-.196-.14-.196.14a.033.033 0 0 1-.05-.036l.073-.23-.194-.143a.033.033 0 0 1 .019-.059l.24-.001.077-.229c.01-.03.052-.03.062 0zM8.396 2.018l.076.229.24.002c.032 0 .045.04.02.058l-.194.144.073.23c.01.03-.025.054-.05.036l-.196-.14-.196.14a.033.033 0 0 1-.05-.037l.073-.23-.194-.143a.033.033 0 0 1 .019-.058l.24-.002.077-.229c.01-.03.052-.03.062 0zM8.396 3.215l.076.228.24.002c.032 0 .045.04.02.059l-.194.143.073.23c.01.03-.025.054-.05.036l-.196-.14-.196.14a.033.033 0 0 1-.05-.036l.073-.23-.194-.143a.033.033 0 0 1 .019-.06h.24l.077-.23c.01-.03.052-.03.062 0zM8.396 4.41l.076.23.24.001c.032 0 .045.04.02.059l-.194.143.073.23c.01.03-.025.054-.05.036l-.196-.14-.196.14a.033.033 0 0 1-.05-.036l.073-.23-.194-.143a.033.033 0 0 1 .019-.059l.24-.001.077-.23c.01-.029.052-.029.062 0zM8.396 5.607l.076.229.24.001c.032 0 .045.04.02.06l-.194.142.073.23c.01.03-.025.055-.05.036l-.196-.14-.196.14a.033.033 0 0 1-.05-.036l.073-.23-.194-.143a.033.033 0 0 1 .019-.059l.24-.001.077-.229c.01-.03.052-.03.062 0z" mask="url(#b)"/>
    </g>
</svg>
